<svg xmlns="http://www.w3.org/2000/svg" xmlns:xlink="http://www.w3.org/1999/xlink" width="500" zoomAndPan="magnify" viewBox="0 0 375 262.499992" height="350" preserveAspectRatio="xMidYMid meet" version="1.0"><defs><clipPath id="d911918f28"><path d="M 166.597656 26.199219 L 374.640625 26.199219 L 374.640625 253.695312 L 166.597656 253.695312 Z M 166.597656 26.199219 " clip-rule="nonzero"/></clipPath><clipPath id="9ca8e6b2de"><path d="M 0.390625 38.039062 L 207.890625 38.039062 L 207.890625 253.878906 L 0.390625 253.878906 Z M 0.390625 38.039062 " clip-rule="nonzero"/></clipPath></defs><g clip-path="url(#d911918f28)"><path fill="#01023b" d="M 359.921875 80.558594 C 350.925781 69.496094 339.765625 60.691406 326.441406 54.148438 C 313.117188 47.605469 298.683594 44.335938 283.144531 44.335938 C 269.628906 44.335938 256.882812 46.835938 244.902344 51.839844 C 232.972656 56.84375 222.535156 63.722656 213.636719 72.378906 C 204.734375 81.085938 197.710938 91.1875 192.613281 102.734375 C 187.515625 114.28125 184.917969 126.59375 184.917969 139.679688 C 184.917969 152.761719 187.464844 165.078125 192.613281 176.621094 C 197.710938 188.167969 204.734375 198.269531 213.636719 206.832031 C 222.535156 215.441406 232.972656 222.226562 244.953125 227.230469 C 256.929688 232.230469 269.675781 234.734375 283.195312 234.734375 C 298.730469 234.734375 313.164062 231.460938 326.488281 224.917969 C 339.8125 218.378906 350.925781 209.574219 359.96875 198.511719 L 374.113281 209.574219 L 374.402344 209.574219 C 363.769531 223.09375 350.539062 233.867188 334.8125 241.851562 C 319.03125 249.886719 301.859375 253.878906 283.242188 253.878906 C 267.273438 253.878906 252.214844 250.847656 238.121094 244.835938 C 223.976562 238.820312 211.664062 230.546875 201.128906 220.109375 C 190.59375 209.671875 182.222656 197.546875 176.113281 183.742188 C 169.910156 170.03125 166.828125 155.359375 166.828125 139.773438 C 166.828125 124.238281 169.910156 109.515625 176.066406 95.710938 C 182.222656 81.90625 190.546875 69.832031 201.078125 59.488281 C 211.613281 49.144531 223.929688 41.015625 238.074219 35.097656 C 252.167969 29.183594 267.222656 26.199219 283.195312 26.199219 C 301.8125 26.199219 319.03125 30.097656 334.761719 37.890625 C 350.539062 45.683594 363.722656 56.21875 374.351562 69.496094 L 374.0625 69.78125 Z M 283.097656 78.730469 C 274.488281 78.730469 266.359375 80.316406 258.710938 83.492188 C 251.011719 86.667969 244.324219 90.996094 238.601562 96.527344 C 232.878906 102.0625 228.355469 108.554688 225.085938 116.011719 C 221.8125 123.46875 220.175781 131.40625 220.175781 139.824219 C 220.175781 148.242188 221.8125 156.082031 225.085938 163.492188 C 228.355469 170.851562 232.878906 177.296875 238.601562 182.828125 C 244.324219 188.359375 251.011719 192.691406 258.710938 195.863281 C 266.40625 199.039062 274.535156 200.628906 283.097656 200.628906 C 293.105469 200.628906 302.386719 198.511719 310.902344 194.324219 C 319.417969 190.140625 326.488281 184.558594 332.261719 177.585938 L 346.691406 188.648438 C 339.332031 197.886719 330.097656 205.195312 319.082031 210.585938 C 308.015625 216.019531 296.039062 218.714844 283.144531 218.714844 C 271.890625 218.714844 261.355469 216.644531 251.542969 212.558594 C 241.726562 208.46875 233.117188 202.839844 225.757812 195.671875 C 218.300781 188.601562 212.527344 180.183594 208.34375 170.5625 C 204.160156 160.941406 202.042969 150.695312 202.042969 139.871094 C 202.042969 129.046875 204.160156 118.800781 208.34375 109.179688 C 212.527344 99.558594 218.347656 91.1875 225.710938 84.023438 C 233.070312 76.855469 241.679688 71.179688 251.492188 66.992188 C 261.308594 62.808594 271.84375 60.691406 283.097656 60.691406 C 295.992188 60.691406 307.96875 63.386719 319.03125 68.820312 C 330.097656 74.257812 339.285156 81.570312 346.644531 90.757812 L 332.214844 102.109375 C 326.296875 94.941406 319.128906 89.265625 310.710938 85.078125 C 302.339844 80.847656 293.105469 78.730469 283.097656 78.730469 Z M 283.097656 78.730469 " fill-opacity="1" fill-rule="nonzero"/></g><g clip-path="url(#9ca8e6b2de)"><path fill="#a4cd0f" d="M 0.390625 253.878906 L 99.972656 253.878906 C 159.574219 253.878906 207.890625 205.5625 207.890625 145.960938 C 207.890625 116.160156 195.8125 89.175781 176.28125 69.652344 C 156.75 50.121094 129.777344 38.039062 99.972656 38.039062 L 8.378906 38.039062 L 41.089844 70.75 L 91.148438 70.75 C 111.921875 70.75 130.71875 79.167969 144.328125 92.777344 C 157.941406 106.386719 166.359375 125.1875 166.359375 145.960938 C 166.359375 187.5 132.6875 221.167969 91.148438 221.167969 L 33.101562 221.167969 L 0.390625 253.878906 " fill-opacity="1" fill-rule="nonzero"/></g></svg>